<svg version="1.1" id="Layer_1" xmlns="http://www.w3.org/2000/svg"
	xmlns:xlink="http://www.w3.org/1999/xlink" x="0px" y="0px"
	width="100%" viewBox="0 0 512 512" enable-background="new 0 0 512 512" xml:space="preserve">
<path fill="#0000" opacity="1.000000" stroke="none" 
	d="
M513.000000,265.000000 
	C513.000000,347.631073 513.000000,430.262115 513.000000,512.946594 
	C342.442474,512.946594 171.884903,512.946594 1.000000,512.946594 
	C1.000000,430.644928 1.000000,348.289459 1.338783,265.542999 
	C8.003099,272.819550 14.451856,280.389587 20.615829,288.184845 
	C25.696692,294.610352 33.291245,294.480560 38.936203,290.415710 
	C43.961559,286.797028 48.409824,282.381317 53.150215,278.361542 
	C61.873405,270.964325 70.578362,263.544556 79.374863,256.235199 
	C90.401962,247.072357 101.557892,238.064453 112.574799,228.889511 
	C121.490822,221.464172 130.234238,213.831680 139.143112,206.397629 
	C150.533295,196.893051 162.040802,187.529175 173.444656,178.040848 
	C182.108932,170.831955 190.653198,163.478821 199.317856,156.270370 
	C210.594666,146.888794 221.941101,137.590927 233.251236,128.249359 
	C241.142761,121.731384 249.023682,115.200546 257.136444,108.487518 
	C266.017334,116.046257 274.537170,123.407539 283.177490,130.624557 
	C294.563019,140.134598 306.070251,149.498840 317.473907,158.987350 
	C326.138031,166.196411 334.679871,173.552597 343.352631,180.751099 
	C354.384766,189.907883 365.539124,198.917618 376.556091,208.092453 
	C385.472168,215.517685 394.196350,223.173676 403.125214,230.583191 
	C416.039978,241.300354 429.121887,251.816284 442.021484,262.551483 
	C453.073425,271.749054 463.839325,281.293701 474.985718,290.373077 
	C481.107697,295.359802 487.982666,294.431366 492.412537,289.066132 
	C494.682465,286.316895 496.721649,283.372772 499.053711,280.680054 
	C503.632751,275.392975 508.343658,270.220123 513.000000,265.000000 
M205.009979,177.482361 
	C199.112549,182.383179 193.207733,187.275177 187.319305,192.186798 
	C177.164673,200.656937 167.069229,209.198807 156.859756,217.602219 
	C142.392883,229.509811 127.850044,241.325134 113.330276,253.168365 
	C102.600960,261.919891 91.810913,270.597687 81.140671,279.420502 
	C76.631218,283.149170 73.670174,287.000122 73.740189,293.990692 
	C74.230766,342.969238 74.138565,391.955719 73.901047,440.938019 
	C73.842812,452.947113 84.906677,461.153442 93.879829,461.100525 
	C133.365128,460.867523 172.852585,461.000000 212.339264,461.000000 
	C213.785248,461.000000 215.231232,461.000000 217.056366,461.000000 
	C217.056366,420.141815 217.056366,379.744751 217.056366,339.216461 
	C243.842209,339.216461 270.241028,339.216461 297.026062,339.216461 
	C297.026062,379.827698 297.026062,420.224792 297.026062,460.280548 
	C297.535278,460.726562 297.657745,460.927826 297.780334,460.927917 
	C339.265808,460.960999 380.751831,461.099976 422.236267,460.901825 
	C430.832092,460.860779 440.029907,451.889343 440.021912,442.834442 
	C439.976685,391.518494 440.006653,340.202423 439.964417,288.886444 
	C439.963287,287.493561 439.916840,285.577240 439.069855,284.797455 
	C434.990417,281.041595 430.658478,277.555969 426.361420,274.041290 
	C415.900848,265.485413 405.373535,257.010895 394.942871,248.418839 
	C386.368103,241.355545 377.938293,234.116287 369.363373,227.053192 
	C358.932526,218.461411 348.380432,210.016830 337.949402,201.425308 
	C329.374451,194.362549 320.943909,187.124451 312.369171,180.061462 
	C301.938202,171.469498 291.412445,162.992722 280.947998,154.441299 
	C272.912994,147.875183 264.909424,141.270615 256.907288,134.695801 
	C246.371658,143.489670 236.254822,152.006012 226.055176,160.421982 
	C219.277039,166.014771 212.380569,171.464127 205.009979,177.482361 
z"/>
<path fill="#0000" opacity="1.000000" stroke="none" 
	d="
M0.999998,254.000000 
	C1.000000,169.702591 1.000000,85.405197 1.000000,1.053896 
	C171.558014,1.053896 342.116028,1.053896 513.000000,1.053896 
	C513.000000,85.355064 513.000000,169.710556 512.659668,254.447510 
	C510.768005,252.943039 509.439606,250.801590 507.624542,249.217957 
	C501.596222,243.958328 495.410309,238.878372 489.253265,233.767517 
	C473.687042,220.846268 458.164673,207.870453 442.454071,195.126953 
	C440.363678,193.431351 439.967957,191.825790 439.970276,189.485962 
	C440.011261,147.825989 440.002991,106.165962 439.997070,64.505943 
	C439.996094,57.488079 436.504150,54.005779 429.473358,54.002850 
	C409.809845,53.994659 390.146301,53.999977 370.482788,54.000011 
	C361.300659,54.000031 358.008179,57.323112 358.002960,66.651581 
	C357.992859,84.648705 358.005615,102.645844 357.988739,120.642960 
	C357.987457,122.001846 357.826141,123.360588 357.723663,124.962318 
	C345.473389,114.517151 333.723602,104.338249 321.796021,94.372093 
	C308.910797,83.605782 295.653839,73.276863 282.938141,62.317242 
	C270.111053,51.261600 249.024048,49.007565 235.634415,59.125584 
	C220.430557,70.614525 205.969360,83.092232 191.282959,95.258003 
	C180.459045,104.224205 169.854767,113.455406 159.039688,122.432480 
	C144.109512,134.825317 129.019104,147.025238 114.099861,159.431107 
	C103.037506,168.629822 92.210358,178.111343 81.148964,187.311234 
	C66.231255,199.718460 51.141308,211.918518 36.215775,224.316422 
	C24.406475,234.125824 12.733509,244.099350 0.999998,254.000000 
z"/>
<path fill="#3794ff" opacity="1.000000" stroke="none" 
	d="
M0.999998,254.458069 
	C12.733509,244.099350 24.406475,234.125824 36.215775,224.316422 
	C51.141308,211.918518 66.231255,199.718460 81.148964,187.311234 
	C92.210358,178.111343 103.037506,168.629822 114.099861,159.431107 
	C129.019104,147.025238 144.109512,134.825317 159.039688,122.432480 
	C169.854767,113.455406 180.459045,104.224205 191.282959,95.258003 
	C205.969360,83.092232 220.430557,70.614525 235.634415,59.125584 
	C249.024048,49.007565 270.111053,51.261600 282.938141,62.317242 
	C295.653839,73.276863 308.910797,83.605782 321.796021,94.372093 
	C333.723602,104.338249 345.473389,114.517151 357.723663,124.962318 
	C357.826141,123.360588 357.987457,122.001846 357.988739,120.642960 
	C358.005615,102.645844 357.992859,84.648705 358.002960,66.651581 
	C358.008179,57.323112 361.300659,54.000031 370.482788,54.000011 
	C390.146301,53.999977 409.809845,53.994659 429.473358,54.002850 
	C436.504150,54.005779 439.996094,57.488079 439.997070,64.505943 
	C440.002991,106.165962 440.011261,147.825989 439.970276,189.485962 
	C439.967957,191.825790 440.363678,193.431351 442.454071,195.126953 
	C458.164673,207.870453 473.687042,220.846268 489.253265,233.767517 
	C495.410309,238.878372 501.596222,243.958328 507.624542,249.217957 
	C509.439606,250.801590 510.768005,252.943039 512.659668,254.914490 
	C513.000000,258.030609 513.000000,261.061188 513.000000,264.545898 
	C508.343658,270.220123 503.632751,275.392975 499.053711,280.680054 
	C496.721649,283.372772 494.682465,286.316895 492.412537,289.066132 
	C487.982666,294.431366 481.107697,295.359802 474.985718,290.373077 
	C463.839325,281.293701 453.073425,271.749054 442.021484,262.551483 
	C429.121887,251.816284 416.039978,241.300354 403.125214,230.583191 
	C394.196350,223.173676 385.472168,215.517685 376.556091,208.092453 
	C365.539124,198.917618 354.384766,189.907883 343.352631,180.751099 
	C334.679871,173.552597 326.138031,166.196411 317.473907,158.987350 
	C306.070251,149.498840 294.563019,140.134598 283.177490,130.624557 
	C274.537170,123.407539 266.017334,116.046257 257.136444,108.487518 
	C249.023682,115.200546 241.142761,121.731384 233.251236,128.249359 
	C221.941101,137.590927 210.594666,146.888794 199.317856,156.270370 
	C190.653198,163.478821 182.108932,170.831955 173.444656,178.040848 
	C162.040802,187.529175 150.533295,196.893051 139.143112,206.397629 
	C130.234238,213.831680 121.490822,221.464172 112.574799,228.889511 
	C101.557892,238.064453 90.401962,247.072357 79.374863,256.235199 
	C70.578362,263.544556 61.873405,270.964325 53.150215,278.361542 
	C48.409824,282.381317 43.961559,286.797028 38.936203,290.415710 
	C33.291245,294.480560 25.696692,294.610352 20.615829,288.184845 
	C14.451856,280.389587 8.003099,272.819550 1.338783,265.076019 
	C1.000000,261.638702 1.000000,258.277435 0.999998,254.458069 
z"/>
<path fill="#3794ff" opacity="1.000000" stroke="none" 
	d="
M205.273529,177.230011 
	C212.380569,171.464127 219.277039,166.014771 226.055176,160.421982 
	C236.254822,152.006012 246.371658,143.489670 256.907288,134.695801 
	C264.909424,141.270615 272.912994,147.875183 280.947998,154.441299 
	C291.412445,162.992722 301.938202,171.469498 312.369171,180.061462 
	C320.943909,187.124451 329.374451,194.362549 337.949402,201.425308 
	C348.380432,210.016830 358.932526,218.461411 369.363373,227.053192 
	C377.938293,234.116287 386.368103,241.355545 394.942871,248.418839 
	C405.373535,257.010895 415.900848,265.485413 426.361420,274.041290 
	C430.658478,277.555969 434.990417,281.041595 439.069855,284.797455 
	C439.916840,285.577240 439.963287,287.493561 439.964417,288.886444 
	C440.006653,340.202423 439.976685,391.518494 440.021912,442.834442 
	C440.029907,451.889343 430.832092,460.860779 422.236267,460.901825 
	C380.751831,461.099976 339.265808,460.960999 297.780334,460.927917 
	C297.657745,460.927826 297.535278,460.726562 297.026062,460.280548 
	C297.026062,420.224792 297.026062,379.827698 297.026062,339.216461 
	C270.241028,339.216461 243.842209,339.216461 217.056366,339.216461 
	C217.056366,379.744751 217.056366,420.141815 217.056366,461.000000 
	C215.231232,461.000000 213.785248,461.000000 212.339264,461.000000 
	C172.852585,461.000000 133.365128,460.867523 93.879829,461.100525 
	C84.906677,461.153442 73.842812,452.947113 73.901047,440.938019 
	C74.138565,391.955719 74.230766,342.969238 73.740189,293.990692 
	C73.670174,287.000122 76.631218,283.149170 81.140671,279.420502 
	C91.810913,270.597687 102.600960,261.919891 113.330276,253.168365 
	C127.850044,241.325134 142.392883,229.509811 156.859756,217.602219 
	C167.069229,209.198807 177.164673,200.656937 187.319305,192.186798 
	C193.207733,187.275177 199.112549,182.383179 205.273529,177.230011 
z"/>
</svg>