<svg xmlns="http://www.w3.org/2000/svg" viewBox="0 0 32 32" width="100px" height="100px">
  <path fill="#00ff9d"
    d="M8 5C6.355 5 5 6.355 5 8c0 1.645 1.355 3 3 3h16c1.645 0 3-1.355 3-3 0-1.645-1.355-3-3-3H8zm0 2h16c.565 0 1 .435 1 1s-.435 1-1 1H8c-.565 0-1-.435-1-1s.435-1 1-1zm0 6c-1.645 0-3 1.355-3 3s1.355 3 3 3h16c1.645 0 3-1.355 3-3s-1.355-3-3-3H8zm0 2h16c.565 0 1 .435 1 1s-.435 1-1 1H8c-.565 0-1-.435-1-1s.435-1 1-1zm0 6c-1.645 0-3 1.355-3 3s1.355 3 3 3h16c1.645 0 3-1.355 3-3s-1.355-3-3-3H8zm0 2h16c.565 0 1 .435 1 1s-.435 1-1 1H8c-.565 0-1-.435-1-1s.435-1 1-1z" />
</svg>